<svg xmlns="http://www.w3.org/2000/svg" width="512" height="512" viewBox="0 0 511.62 511.619"><g fill="#7289DA"><path d="M301.923 327.602c30.93-13.038 55.34-30.785 73.228-53.248 17.892-22.458 26.838-46.915 26.838-73.372 0-26.458-8.946-50.914-26.837-73.376-17.887-22.46-42.297-40.208-73.227-53.25-30.93-13.038-64.57-19.555-100.928-19.555-36.354 0-69.995 6.522-100.927 19.56-30.928 13.04-55.34 30.79-73.228 53.25C8.947 150.067 0 174.522 0 200.98c0 22.648 6.764 43.975 20.276 63.957 13.512 19.984 32.07 36.832 55.67 50.534-1.9 4.572-3.852 8.754-5.85 12.566-2 3.806-4.378 7.467-7.14 10.99-2.76 3.526-4.9 6.284-6.423 8.276-1.523 1.998-3.997 4.81-7.424 8.422-3.43 3.617-5.62 5.996-6.568 7.135 0-.19-.383.24-1.143 1.287-.764 1.047-1.192 1.52-1.288 1.43-.094-.102-.476.374-1.14 1.42l-1 1.572-.716 1.423c-.284.568-.476 1.137-.57 1.712-.096.567-.144 1.19-.144 1.854s.094 1.28.286 1.855c.383 2.47 1.477 4.466 3.284 5.996 1.81 1.52 3.757 2.28 5.854 2.28h.857c9.515-1.332 17.7-2.854 24.552-4.57 29.312-7.613 55.77-19.796 79.372-36.544 17.128 3.046 33.88 4.568 50.248 4.568 36.354.012 70-6.503 100.928-19.542zm-159.74-23.835l-12.563 8.846c-5.33 3.614-11.227 7.33-17.7 11.14l9.995-23.986L94.22 283.78c-18.275-10.657-32.453-23.22-42.54-37.686-10.09-14.465-15.132-29.502-15.132-45.11 0-19.418 7.474-37.595 22.414-54.535 14.938-16.94 35.067-30.36 60.382-40.26 25.313-9.895 52.532-14.847 81.653-14.847 29.12 0 56.342 4.952 81.654 14.847 25.314 9.9 45.443 23.32 60.39 40.26 14.94 16.938 22.407 35.115 22.407 54.533 0 19.414-7.468 37.59-22.408 54.53-14.946 16.945-35.075 30.36-60.39 40.256-25.31 9.896-52.53 14.845-81.653 14.845-14.272 0-28.833-1.335-43.68-3.997l-15.133-2.85z"/><path d="M491.347 338.156c13.518-19.896 20.272-41.255 20.272-64.098 0-23.41-7.14-45.303-21.41-65.666-14.277-20.362-33.694-37.305-58.245-50.82 4.374 14.275 6.563 28.74 6.563 43.4 0 25.502-6.368 49.675-19.13 72.518-12.75 22.836-31.024 43.01-54.815 60.524-22.08 15.988-47.205 28.26-75.377 36.83-28.164 8.56-57.573 12.847-88.218 12.847-5.708 0-14.084-.376-25.122-1.136 38.256 25.12 83.177 37.685 134.756 37.685 16.37 0 33.12-1.527 50.25-4.572 23.6 16.755 50.06 28.93 79.37 36.55 6.853 1.717 15.038 3.236 24.555 4.567 2.283.195 4.38-.476 6.283-1.995 1.903-1.526 3.142-3.614 3.71-6.276-.09-1.143 0-1.77.287-1.86.28-.09.233-.713-.144-1.853-.376-1.143-.568-1.714-.568-1.714l-.712-1.424c-.198-.376-.52-.903-1-1.567-.475-.66-.854-1.14-1.142-1.427-.28-.284-.704-.763-1.28-1.424-.567-.66-.95-1.092-1.142-1.283-.95-1.142-3.14-3.52-6.564-7.138-3.43-3.613-5.9-6.42-7.422-8.418-1.523-2-3.665-4.757-6.424-8.282-2.758-3.518-5.14-7.183-7.14-10.99-1.997-3.807-3.948-7.996-5.85-12.56 23.593-13.717 42.155-30.513 55.66-50.416z"/></g></svg>
