<svg width="188" height="188" viewBox="0 0 188 188" fill="none" xmlns="http://www.w3.org/2000/svg">
<path d="M159.421 66.4439C146.648 66.4439 136.291 56.0879 136.291 43.3139C136.291 38.2699 137.911 33.6069 140.651 29.8059C127.571 20.2659 111.431 14.6429 93.891 14.6429C49.801 14.6429 14.753 50.1329 14.753 94.2199C14.753 138.306 49.801 173.356 93.891 173.356C137.977 173.356 173.246 138.306 173.246 94.2199C173.246 83.853 171.296 73.9619 167.739 64.8959C165.157 65.8919 162.355 66.4439 159.421 66.4439ZM93.891 138.086C69.861 138.086 50.023 118.246 50.023 94.2209C50.023 69.9709 69.863 49.9129 93.89 49.9129C118.135 49.9129 137.974 69.9729 137.974 94.2209C137.974 118.247 118.134 138.088 93.886 138.088L93.891 138.086Z" fill="#FFFDD8"/>
<path d="M159.383 14.824C143.555 14.824 130.973 27.564 130.973 43.392C130.973 59.22 143.555 71.802 159.383 71.802C175.211 71.802 187.873 59.22 187.873 43.392C187.873 27.564 175.211 14.824 159.383 14.824ZM159.369 64.399C147.879 64.399 138.389 54.911 138.389 43.419C138.389 31.824 147.879 22.231 159.369 22.231C170.966 22.231 180.454 31.824 180.454 43.421C180.454 54.911 170.966 64.399 159.369 64.399Z" fill="#FFFDD8"/>
</svg>
